{
    "asset" : {
        "generator" : "Khronos glTF Blender I/O v1.5.17",
        "version" : "2.0"
    },
    "scene" : 0,
    "scenes" : [
        {
            "name" : "Scene",
            "nodes" : [
                0
            ]
        }
    ],
    "nodes" : [
        {
            "mesh" : 0,
            "name" : "Icosphere.001",
            "scale" : [
                39.02633285522461,
                39.02633285522461,
                39.02633285522461
            ],
            "translation" : [
                0,
                -40.15190124511719,
                0
            ]
        }
    ],
    "materials" : [
        {
            "doubleSided" : true,
            "name" : "sea",
            "pbrMetallicRoughness" : {
                "baseColorFactor" : [
                    0.00911752413958311,
                    0.04444726184010506,
                    0.6981865763664246,
                    1
                ],
                "metallicFactor" : 0,
                "roughnessFactor" : 0.5
            }
        },
        {
            "doubleSided" : true,
            "name" : "green",
            "pbrMetallicRoughness" : {
                "baseColorFactor" : [
                    0.04114942252635956,
                    0.6382656097412109,
                    0.00858752615749836,
                    1
                ],
                "metallicFactor" : 0,
                "roughnessFactor" : 0.5
            }
        },
        {
            "doubleSided" : true,
            "name" : "white",
            "pbrMetallicRoughness" : {
                "baseColorFactor" : [
                    0.800000011920929,
                    0.800000011920929,
                    0.800000011920929,
                    1
                ],
                "metallicFactor" : 0,
                "roughnessFactor" : 0.5
            }
        }
    ],
    "meshes" : [
        {
            "name" : "Icosphere.001",
            "primitives" : [
                {
                    "attributes" : {
                        "POSITION" : 0,
                        "NORMAL" : 1
                    },
                    "indices" : 2,
                    "material" : 0
                },
                {
                    "attributes" : {
                        "POSITION" : 3,
                        "NORMAL" : 4
                    },
                    "indices" : 5,
                    "material" : 1
                },
                {
                    "attributes" : {
                        "POSITION" : 6,
                        "NORMAL" : 7
                    },
                    "indices" : 8,
                    "material" : 2
                }
            ]
        }
    ],
    "accessors" : [
        {
            "bufferView" : 0,
            "componentType" : 5126,
            "count" : 960,
            "max" : [
                1,
                1,
                0.9999999403953552
            ],
            "min" : [
                -0.9999999403953552,
                -1,
                -0.9999999403953552
            ],
            "type" : "VEC3"
        },
        {
            "bufferView" : 1,
            "componentType" : 5126,
            "count" : 960,
            "type" : "VEC3"
        },
        {
            "bufferView" : 2,
            "componentType" : 5123,
            "count" : 960,
            "type" : "SCALAR"
        },
        {
            "bufferView" : 3,
            "componentType" : 5126,
            "count" : 3204,
            "max" : [
                1.0101557970046997,
                0.997012734413147,
                1.0101556777954102
            ],
            "min" : [
                -0.6351315975189209,
                -0.7177177667617798,
                -1.0020768642425537
            ],
            "type" : "VEC3"
        },
        {
            "bufferView" : 4,
            "componentType" : 5126,
            "count" : 3204,
            "type" : "VEC3"
        },
        {
            "bufferView" : 5,
            "componentType" : 5123,
            "count" : 4890,
            "type" : "SCALAR"
        },
        {
            "bufferView" : 6,
            "componentType" : 5126,
            "count" : 436,
            "max" : [
                0.3105185329914093,
                1.0101557970046997,
                0.5761224627494812
            ],
            "min" : [
                -0.35643282532691956,
                -1.0101557970046997,
                -0.3711167871952057
            ],
            "type" : "VEC3"
        },
        {
            "bufferView" : 7,
            "componentType" : 5126,
            "count" : 436,
            "type" : "VEC3"
        },
        {
            "bufferView" : 8,
            "componentType" : 5123,
            "count" : 654,
            "type" : "SCALAR"
        }
    ],
    "bufferViews" : [
        {
            "buffer" : 0,
            "byteLength" : 11520,
            "byteOffset" : 0
        },
        {
            "buffer" : 0,
            "byteLength" : 11520,
            "byteOffset" : 11520
        },
        {
            "buffer" : 0,
            "byteLength" : 1920,
            "byteOffset" : 23040
        },
        {
            "buffer" : 0,
            "byteLength" : 38448,
            "byteOffset" : 24960
        },
        {
            "buffer" : 0,
            "byteLength" : 38448,
            "byteOffset" : 63408
        },
        {
            "buffer" : 0,
            "byteLength" : 9780,
            "byteOffset" : 101856
        },
        {
            "buffer" : 0,
            "byteLength" : 5232,
            "byteOffset" : 111636
        },
        {
            "buffer" : 0,
            "byteLength" : 5232,
            "byteOffset" : 116868
        },
        {
            "buffer" : 0,
            "byteLength" : 1308,
            "byteOffset" : 122100
        }
    ],
    "buffers" : [
        {
            "byteLength" : 123408,
            "uri" : "data:application/octet-stream;base64,"
        }
    ]
}
